<svg width="473" height="297" viewBox="0 0 473 297" fill="none" xmlns="http://www.w3.org/2000/svg">
<g clip-path="url(#clip0_52_920)">
<path d="M472.525 121.981H471.727V100.119C471.727 98.4574 471.4 96.8121 470.764 95.2769C470.128 93.7418 469.196 92.347 468.021 91.172C466.846 89.9971 465.451 89.0651 463.916 88.4292C462.381 87.7933 460.735 87.4661 459.074 87.4661H412.757C411.095 87.4661 409.45 87.7933 407.915 88.4292C406.38 89.0651 404.985 89.9971 403.81 91.172C402.635 92.347 401.703 93.7418 401.067 95.2769C400.431 96.8121 400.104 98.4574 400.104 100.119V220.054C400.104 221.716 400.431 223.361 401.067 224.896C401.703 226.431 402.635 227.826 403.81 229.001C404.985 230.176 406.38 231.108 407.915 231.744C409.45 232.38 411.095 232.707 412.757 232.707H459.074C460.735 232.707 462.381 232.38 463.916 231.744C465.451 231.108 466.846 230.176 468.021 229.001C469.196 227.826 470.128 226.431 470.764 224.896C471.4 223.361 471.727 221.716 471.727 220.054V137.542H472.525V121.981Z" fill="#3F3D56"/>
<path d="M469.034 100.862V220.623C469.034 223.129 468.038 225.533 466.266 227.305C464.494 229.078 462.09 230.073 459.584 230.074H413.044C411.803 230.073 410.575 229.829 409.428 229.354C408.282 228.879 407.241 228.183 406.363 227.305C405.486 226.427 404.791 225.386 404.316 224.239C403.841 223.093 403.597 221.864 403.598 220.623V100.862C403.598 98.3572 404.593 95.9545 406.365 94.183C408.136 92.4115 410.539 91.4163 413.044 91.4163H418.69C418.413 92.0978 418.308 92.8371 418.383 93.5689C418.459 94.3008 418.713 95.0028 419.124 95.6135C419.534 96.2241 420.088 96.7245 420.737 97.0707C421.387 97.417 422.111 97.5985 422.847 97.5992H449.382C450.118 97.6006 450.844 97.4205 451.494 97.0748C452.145 96.7292 452.7 96.2286 453.111 95.6173C453.522 95.0061 453.776 94.303 453.85 93.5703C453.925 92.8376 453.818 92.0977 453.538 91.4163H459.584C462.09 91.4161 464.493 92.4112 466.265 94.1826C468.037 95.954 469.033 98.3567 469.034 100.862Z" fill="#D0CDE1"/>
<path d="M460.224 152.731H406.123V167.329H460.224V152.731Z" fill="#385C86"/>
<path d="M462.37 164.753H409.987C409.645 164.753 409.318 164.617 409.077 164.376C408.835 164.134 408.699 163.807 408.699 163.465V150.584C408.699 150.243 408.835 149.915 409.077 149.674C409.318 149.432 409.645 149.296 409.987 149.296H462.37C462.712 149.296 463.039 149.432 463.281 149.674C463.522 149.915 463.658 150.243 463.659 150.584V163.465C463.658 163.807 463.522 164.134 463.281 164.376C463.039 164.617 462.712 164.753 462.37 164.753ZM409.987 150.155C409.873 150.155 409.764 150.2 409.683 150.281C409.603 150.361 409.558 150.47 409.558 150.584V163.465C409.558 163.579 409.603 163.688 409.683 163.769C409.764 163.849 409.873 163.894 409.987 163.895H462.37C462.484 163.894 462.593 163.849 462.674 163.769C462.754 163.688 462.8 163.579 462.8 163.465V150.584C462.8 150.47 462.754 150.361 462.674 150.281C462.593 150.2 462.484 150.155 462.37 150.155H409.987Z" fill="#3F3D56"/>
<path d="M419.004 160.889H412.134V161.748H419.004V160.889Z" fill="#3F3D56"/>
<path d="M428.45 160.889H421.58V161.748H428.45V160.889Z" fill="#3F3D56"/>
<path d="M437.896 160.889H431.026V161.748H437.896V160.889Z" fill="#3F3D56"/>
<path d="M447.342 160.889H440.472V161.748H447.342V160.889Z" fill="#3F3D56"/>
<path d="M456.789 160.889H449.919V161.748H456.789V160.889Z" fill="#3F3D56"/>
<path opacity="0.1" d="M469.034 208.446V220.623C469.034 223.13 468.038 225.533 466.266 227.306C464.494 229.078 462.09 230.074 459.584 230.074H413.044C411.803 230.073 410.575 229.829 409.428 229.354C408.282 228.879 407.241 228.183 406.363 227.305C405.486 226.427 404.791 225.386 404.316 224.239C403.841 223.093 403.597 221.864 403.598 220.623V164.607L469.034 208.446Z" fill="black"/>
<path d="M245.967 197.385H42.8734V297H245.967V197.385Z" fill="#D0CDE1"/>
<path opacity="0.1" d="M194.335 297H43.7322C43.5046 296.999 43.2866 296.909 43.1257 296.748C42.9648 296.587 42.8741 296.369 42.8734 296.141V198.244C42.8741 198.017 42.9648 197.799 43.1257 197.638C43.2866 197.477 43.5046 197.386 43.7322 197.385H45.6386L194.335 297Z" fill="black"/>
<path d="M451.636 210.696H136.906V211.555H451.636V210.696Z" fill="#3F3D56"/>
<path d="M236.409 1.85393H146.46V0H105.674V1.85393H15.354C14.555 1.85392 13.7638 2.0113 13.0256 2.31707C12.2874 2.62284 11.6167 3.07101 11.0517 3.636C10.4867 4.20099 10.0386 4.87172 9.7328 5.60991C9.42703 6.3481 9.26965 7.13929 9.26965 7.93831V131.106C9.26965 132.72 9.91068 134.268 11.0517 135.409C12.1928 136.55 13.7404 137.191 15.354 137.191H236.409C238.023 137.191 239.571 136.55 240.712 135.409C241.853 134.268 242.494 132.72 242.494 131.106V7.93831C242.494 7.13929 242.336 6.3481 242.031 5.60991C241.725 4.87172 241.277 4.20099 240.712 3.636C240.147 3.07101 239.476 2.62284 238.738 2.31707C238 2.0113 237.208 1.85392 236.409 1.85393Z" fill="#3F3D56"/>
<path d="M234.335 12.605H17.4288V134.968H234.335V12.605Z" fill="#D0CDE1"/>
<path d="M125.696 9.26974C126.925 9.26974 127.921 8.2737 127.921 7.04503C127.921 5.81635 126.925 4.82031 125.696 4.82031C124.468 4.82031 123.472 5.81635 123.472 7.04503C123.472 8.2737 124.468 9.26974 125.696 9.26974Z" fill="#385C86"/>
<path d="M81.9463 58.2687H76.7939C76.4523 58.2684 76.1249 58.1325 75.8834 57.8911C75.6419 57.6496 75.5061 57.3221 75.5057 56.9806V51.8282C75.5061 51.4866 75.6419 51.1592 75.8834 50.9177C76.1249 50.6762 76.4523 50.5404 76.7939 50.54H81.9463C82.2878 50.5404 82.6153 50.6762 82.8568 50.9177C83.0982 51.1592 83.2341 51.4866 83.2344 51.8282V56.9806C83.2341 57.3221 83.0982 57.6496 82.8568 57.8911C82.6153 58.1325 82.2878 58.2684 81.9463 58.2687ZM76.7939 51.3988C76.68 51.3989 76.5709 51.4442 76.4904 51.5247C76.4099 51.6052 76.3646 51.7143 76.3645 51.8282V56.9806C76.3646 57.0945 76.4099 57.2036 76.4904 57.2841C76.5709 57.3646 76.68 57.4099 76.7939 57.41H81.9463C82.0602 57.4099 82.1693 57.3646 82.2498 57.2841C82.3303 57.2036 82.3756 57.0945 82.3757 56.9806V51.8282C82.3756 51.7143 82.3303 51.6052 82.2498 51.5247C82.1693 51.4442 82.0602 51.3989 81.9463 51.3988H76.7939Z" fill="#3F3D56"/>
<path d="M173.832 57.4102H75.9351V58.2689H173.832V57.4102Z" fill="#3F3D56"/>
<path d="M171.256 81.0256H148.499V87.8956H171.256V81.0256Z" fill="#385C86"/>
<path d="M172.973 86.1779H151.934C151.593 86.1776 151.265 86.0417 151.024 85.8002C150.782 85.5587 150.646 85.2313 150.646 84.8898V79.7373C150.646 79.3958 150.782 79.0684 151.024 78.8269C151.265 78.5854 151.593 78.4496 151.934 78.4492H172.973C173.315 78.4496 173.642 78.5854 173.884 78.8269C174.125 79.0684 174.261 79.3958 174.261 79.7373V84.8898C174.261 85.2313 174.125 85.5587 173.884 85.8002C173.642 86.0417 173.315 86.1776 172.973 86.1779ZM151.934 79.308C151.82 79.3081 151.711 79.3534 151.631 79.4339C151.55 79.5144 151.505 79.6235 151.505 79.7373V84.8898C151.505 85.0036 151.55 85.1128 151.631 85.1933C151.711 85.2737 151.82 85.319 151.934 85.3192H172.973C173.087 85.319 173.196 85.2737 173.277 85.1933C173.357 85.1128 173.403 85.0036 173.403 84.8898V79.7373C173.403 79.6235 173.357 79.5144 173.277 79.4339C173.196 79.3534 173.087 79.3081 172.973 79.308H151.934Z" fill="#3F3D56"/>
<path d="M345.152 88.7542H302.215V118.81H345.152V88.7542Z" fill="#385C86"/>
<path d="M349.445 116.449H308.225C307.77 116.448 307.333 116.267 307.011 115.945C306.69 115.623 306.508 115.187 306.508 114.731V86.3928C306.508 85.9374 306.69 85.5009 307.011 85.1789C307.333 84.8569 307.77 84.6758 308.225 84.6753H349.445C349.901 84.6758 350.337 84.8569 350.659 85.1789C350.981 85.5008 351.162 85.9374 351.163 86.3928V114.731C351.162 115.187 350.981 115.623 350.659 115.945C350.337 116.267 349.901 116.448 349.445 116.449ZM308.225 86.3928V114.731H349.446L349.445 86.3928H308.225Z" fill="#3F3D56"/>
<path d="M344.722 85.3192H343.005C343.005 81.5612 341.512 77.9572 338.855 75.3C336.197 72.6427 332.593 71.1499 328.835 71.1499C325.077 71.1499 321.473 72.6427 318.816 75.3C316.159 77.9572 314.666 81.5612 314.666 85.3192H312.949C312.949 81.1057 314.622 77.0649 317.602 74.0855C320.581 71.1062 324.622 69.4324 328.835 69.4324C333.049 69.4324 337.09 71.1062 340.069 74.0855C343.048 77.0649 344.722 81.1057 344.722 85.3192Z" fill="#3F3D56"/>
<path d="M333.129 97.1269C333.13 96.3792 332.936 95.6442 332.565 94.9947C332.195 94.3452 331.661 93.8037 331.017 93.4238C330.373 93.0439 329.641 92.8387 328.894 92.8285C328.146 92.8184 327.409 93.0036 326.755 93.366C326.101 93.7283 325.553 94.2551 325.165 94.8943C324.777 95.5335 324.563 96.2629 324.543 97.0104C324.524 97.7578 324.7 98.4974 325.054 99.1559C325.408 99.8144 325.928 100.369 326.562 100.765V105.373C326.562 105.672 326.621 105.967 326.735 106.243C326.85 106.519 327.017 106.77 327.228 106.981C327.439 107.192 327.69 107.359 327.966 107.473C328.241 107.588 328.537 107.647 328.836 107.647C329.438 107.647 330.017 107.407 330.443 106.981C330.869 106.554 331.109 105.976 331.109 105.373V100.765C331.727 100.38 332.237 99.844 332.59 99.2075C332.944 98.571 333.129 97.855 333.129 97.1269Z" fill="#3F3D56"/>
<path d="M128.963 241.611H122.093V242.47H128.963V241.611Z" fill="#3F3D56"/>
<path d="M138.409 241.611H131.539V242.47H138.409V241.611Z" fill="#3F3D56"/>
<path d="M147.855 241.611H140.985V242.47H147.855V241.611Z" fill="#3F3D56"/>
<path d="M157.301 241.611H150.431V242.47H157.301V241.611Z" fill="#3F3D56"/>
<path d="M166.747 241.611H159.877V242.47H166.747V241.611Z" fill="#3F3D56"/>
<path d="M254.983 289.701H53.6077C53.1524 289.7 52.7158 289.519 52.3938 289.197C52.0718 288.875 51.8907 288.438 51.8903 287.983V190.086C51.8907 189.631 52.0718 189.194 52.3938 188.872C52.7158 188.55 53.1524 188.369 53.6077 188.369H254.983C255.439 188.369 255.875 188.55 256.197 188.872C256.519 189.194 256.7 189.631 256.701 190.086V287.983C256.7 288.438 256.519 288.875 256.197 289.197C255.875 289.519 255.439 289.7 254.983 289.701ZM53.6077 190.086V287.983H254.985L254.983 190.086H53.6077Z" fill="#3F3D56"/>
<path d="M62.6246 204.685C64.0474 204.685 65.2008 203.532 65.2008 202.109C65.2008 200.686 64.0474 199.532 62.6246 199.532C61.2018 199.532 60.0483 200.686 60.0483 202.109C60.0483 203.532 61.2018 204.685 62.6246 204.685Z" fill="#3F3D56"/>
<path d="M71.6414 204.685C73.0642 204.685 74.2176 203.532 74.2176 202.109C74.2176 200.686 73.0642 199.532 71.6414 199.532C70.2185 199.532 69.0651 200.686 69.0651 202.109C69.0651 203.532 70.2185 204.685 71.6414 204.685Z" fill="#3F3D56"/>
<path d="M80.6581 204.685C82.081 204.685 83.2344 203.532 83.2344 202.109C83.2344 200.686 82.081 199.532 80.6581 199.532C79.2353 199.532 78.0819 200.686 78.0819 202.109C78.0819 203.532 79.2353 204.685 80.6581 204.685Z" fill="#3F3D56"/>
<path d="M173.403 247.622H115.437C115.096 247.622 114.768 247.486 114.527 247.244C114.285 247.003 114.15 246.676 114.149 246.334V231.735C114.15 231.394 114.285 231.066 114.527 230.825C114.768 230.583 115.096 230.448 115.437 230.447H173.403C173.744 230.448 174.072 230.583 174.313 230.825C174.555 231.066 174.69 231.394 174.691 231.735V246.334C174.69 246.676 174.555 247.003 174.313 247.244C174.072 247.486 173.744 247.622 173.403 247.622ZM115.437 231.306C115.324 231.306 115.214 231.351 115.134 231.432C115.053 231.512 115.008 231.622 115.008 231.735V246.334C115.008 246.448 115.053 246.557 115.134 246.638C115.214 246.718 115.324 246.763 115.437 246.763H173.403C173.517 246.763 173.626 246.718 173.706 246.638C173.787 246.557 173.832 246.448 173.832 246.334V231.735C173.832 231.622 173.787 231.512 173.706 231.432C173.626 231.351 173.517 231.306 173.403 231.306H115.437Z" fill="#3F3D56"/>
<path d="M188.001 248.052C192.27 248.052 195.73 244.591 195.73 240.323C195.73 236.054 192.27 232.594 188.001 232.594C183.733 232.594 180.273 236.054 180.273 240.323C180.273 244.591 183.733 248.052 188.001 248.052Z" fill="#385C86"/>
<path d="M190.578 247.193C188.964 247.193 187.387 246.714 186.045 245.818C184.704 244.922 183.658 243.647 183.04 242.157C182.423 240.666 182.261 239.026 182.576 237.443C182.891 235.861 183.668 234.407 184.809 233.266C185.95 232.125 187.403 231.348 188.986 231.033C190.568 230.719 192.209 230.88 193.699 231.498C195.19 232.115 196.464 233.161 197.361 234.502C198.257 235.844 198.736 237.421 198.736 239.035C198.733 241.198 197.873 243.271 196.343 244.801C194.814 246.33 192.74 247.19 190.578 247.193ZM190.578 231.735C189.134 231.735 187.723 232.164 186.522 232.966C185.322 233.768 184.386 234.908 183.834 236.241C183.281 237.575 183.137 239.043 183.418 240.459C183.7 241.875 184.395 243.175 185.416 244.196C186.437 245.217 187.738 245.912 189.153 246.194C190.569 246.476 192.037 246.331 193.371 245.779C194.705 245.226 195.845 244.29 196.647 243.09C197.449 241.89 197.877 240.478 197.877 239.035C197.875 237.1 197.105 235.244 195.737 233.876C194.368 232.507 192.513 231.738 190.578 231.735Z" fill="#3F3D56"/>
<path d="M190.692 242.082L186.535 237.924L187.75 236.71L190.463 239.423L198.034 228.665L199.438 229.653L190.692 242.082Z" fill="#3F3D56"/>
<path opacity="0.1" d="M186.245 134.968H17.4286V21.8752L186.245 134.968Z" fill="black"/>
<path d="M248.584 132.741H227.415V131.216C227.415 131.176 227.407 131.137 227.392 131.1C227.377 131.064 227.355 131.03 227.327 131.002C227.299 130.974 227.265 130.952 227.229 130.937C227.192 130.921 227.152 130.914 227.113 130.914H219.855C219.815 130.914 219.776 130.921 219.739 130.937C219.702 130.952 219.669 130.974 219.641 131.002C219.613 131.03 219.591 131.064 219.575 131.1C219.56 131.137 219.552 131.176 219.552 131.216V132.741H215.016V131.216C215.016 131.176 215.008 131.137 214.993 131.1C214.978 131.064 214.956 131.03 214.928 131.002C214.9 130.974 214.866 130.952 214.83 130.937C214.793 130.921 214.754 130.914 214.714 130.914H207.456C207.416 130.914 207.377 130.921 207.34 130.937C207.303 130.952 207.27 130.974 207.242 131.002C207.214 131.03 207.192 131.064 207.176 131.1C207.161 131.137 207.153 131.176 207.153 131.216V132.741H202.617V131.216C202.617 131.176 202.609 131.137 202.594 131.1C202.579 131.064 202.557 131.03 202.529 131.002C202.501 130.974 202.467 130.952 202.431 130.937C202.394 130.921 202.355 130.914 202.315 130.914H195.057C195.017 130.914 194.978 130.921 194.941 130.937C194.904 130.952 194.871 130.974 194.843 131.002C194.815 131.03 194.793 131.064 194.778 131.1C194.762 131.137 194.755 131.176 194.755 131.216V132.741H190.218V131.216C190.218 131.176 190.21 131.137 190.195 131.1C190.18 131.064 190.158 131.03 190.13 131.002C190.102 130.974 190.068 130.952 190.032 130.937C189.995 130.921 189.956 130.914 189.916 130.914H182.658C182.618 130.914 182.579 130.921 182.542 130.937C182.506 130.952 182.472 130.974 182.444 131.002C182.416 131.03 182.394 131.064 182.379 131.1C182.363 131.137 182.356 131.176 182.356 131.216V132.741H177.819V131.216C177.819 131.176 177.812 131.137 177.796 131.1C177.781 131.064 177.759 131.03 177.731 131.002C177.703 130.974 177.669 130.952 177.633 130.937C177.596 130.921 177.557 130.914 177.517 130.914H170.259C170.219 130.914 170.18 130.921 170.143 130.937C170.107 130.952 170.073 130.974 170.045 131.002C170.017 131.03 169.995 131.064 169.98 131.1C169.964 131.137 169.957 131.176 169.957 131.216V132.741H165.42V131.216C165.42 131.176 165.413 131.137 165.397 131.1C165.382 131.064 165.36 131.03 165.332 131.002C165.304 130.974 165.27 130.952 165.234 130.937C165.197 130.921 165.158 130.914 165.118 130.914H157.86C157.82 130.914 157.781 130.921 157.744 130.937C157.708 130.952 157.674 130.974 157.646 131.002C157.618 131.03 157.596 131.064 157.581 131.1C157.565 131.137 157.558 131.176 157.558 131.216V132.741H153.021V131.216C153.021 131.176 153.014 131.137 152.998 131.1C152.983 131.064 152.961 131.03 152.933 131.002C152.905 130.974 152.871 130.952 152.835 130.937C152.798 130.921 152.759 130.914 152.719 130.914H95.8652C95.8255 130.914 95.7861 130.921 95.7494 130.937C95.7128 130.952 95.6794 130.974 95.6513 131.002C95.6233 131.03 95.601 131.064 95.5858 131.1C95.5706 131.137 95.5628 131.176 95.5628 131.216V132.741H91.0266V131.216C91.0266 131.176 91.0187 131.137 91.0035 131.1C90.9883 131.064 90.9661 131.03 90.938 131.002C90.9099 130.974 90.8766 130.952 90.8399 130.937C90.8032 130.921 90.7639 130.914 90.7241 130.914H83.4662C83.4265 130.914 83.3872 130.921 83.3505 130.937C83.3138 130.952 83.2805 130.974 83.2524 131.002C83.2243 131.03 83.202 131.064 83.1868 131.1C83.1716 131.137 83.1638 131.176 83.1638 131.216V132.741H78.6276V131.216C78.6276 131.176 78.6198 131.137 78.6046 131.1C78.5894 131.064 78.5671 131.03 78.539 131.002C78.5109 130.974 78.4776 130.952 78.4409 130.937C78.4042 130.921 78.3649 130.914 78.3252 130.914H71.0672C71.0275 130.914 70.9882 130.921 70.9515 130.937C70.9148 130.952 70.8815 130.974 70.8534 131.002C70.8253 131.03 70.803 131.064 70.7878 131.1C70.7727 131.137 70.7648 131.176 70.7648 131.216V132.741H66.2286V131.216C66.2286 131.176 66.2208 131.137 66.2056 131.1C66.1904 131.064 66.1681 131.03 66.1401 131.002C66.112 130.974 66.0786 130.952 66.0419 130.937C66.0052 130.921 65.9659 130.914 65.9262 130.914H58.6683C58.6286 130.914 58.5892 130.921 58.5526 130.937C58.5159 130.952 58.4825 130.974 58.4545 131.002C58.4264 131.03 58.4041 131.064 58.3889 131.1C58.3737 131.137 58.3659 131.176 58.3659 131.216V132.741H53.8297V131.216C53.8297 131.176 53.8218 131.137 53.8066 131.1C53.7914 131.064 53.7692 131.03 53.7411 131.002C53.713 130.974 53.6797 130.952 53.643 130.937C53.6063 130.921 53.567 130.914 53.5272 130.914H46.2693C46.2296 130.914 46.1903 130.921 46.1536 130.937C46.1169 130.952 46.0835 130.974 46.0555 131.002C46.0274 131.03 46.0051 131.064 45.9899 131.1C45.9747 131.137 45.9669 131.176 45.9669 131.216V132.741H41.4307V131.216C41.4307 131.176 41.4229 131.137 41.4077 131.1C41.3925 131.064 41.3702 131.03 41.3421 131.002C41.3141 130.974 41.2807 130.952 41.244 130.937C41.2073 130.921 41.168 130.914 41.1283 130.914H33.8703C33.8306 130.914 33.7913 130.921 33.7546 130.937C33.7179 130.952 33.6846 130.974 33.6565 131.002C33.6284 131.03 33.6061 131.064 33.591 131.1C33.5758 131.137 33.5679 131.176 33.5679 131.216V132.741H29.0317V131.216C29.0317 131.176 29.0239 131.137 29.0087 131.1C28.9935 131.064 28.9712 131.03 28.9432 131.002C28.9151 130.974 28.8817 130.952 28.845 130.937C28.8083 130.921 28.769 130.914 28.7293 130.914H21.4714C21.4317 130.914 21.3923 130.921 21.3556 130.937C21.319 130.952 21.2856 130.974 21.2575 131.002C21.2295 131.03 21.2072 131.064 21.192 131.1C21.1768 131.137 21.169 131.176 21.169 131.216V132.741H7.25793C6.3048 132.741 5.36101 132.929 4.48044 133.294C3.59987 133.658 2.79976 134.193 2.1258 134.867C1.45184 135.541 0.91722 136.341 0.552476 137.222C0.187731 138.102 -5.63859e-07 139.046 0 139.999V143.281C4.55506e-06 145.206 0.764679 147.052 2.1258 148.413C3.48693 149.774 5.33301 150.539 7.25793 150.539H248.584C249.537 150.539 250.481 150.351 251.362 149.986C252.242 149.622 253.042 149.087 253.716 148.413C254.39 147.739 254.925 146.939 255.29 146.058C255.654 145.178 255.842 144.234 255.842 143.281V139.999C255.842 139.046 255.654 138.102 255.29 137.222C254.925 136.341 254.39 135.541 253.716 134.867C253.042 134.193 252.242 133.658 251.362 133.294C250.481 132.929 249.537 132.741 248.584 132.741Z" fill="#3F3D56"/>
<path d="M182.42 93.4774H69.0652C68.7236 93.477 68.3962 93.3412 68.1547 93.0997C67.9132 92.8582 67.7774 92.5308 67.777 92.1893V44.9583C67.7774 44.6168 67.9132 44.2893 68.1547 44.0479C68.3962 43.8064 68.7236 43.6705 69.0652 43.6702H182.42C182.761 43.6705 183.088 43.8064 183.33 44.0479C183.571 44.2893 183.707 44.6168 183.708 44.9583V92.1893C183.707 92.5308 183.571 92.8582 183.33 93.0997C183.088 93.3412 182.761 93.477 182.42 93.4774ZM69.0652 44.5289C68.9513 44.5291 68.8422 44.5743 68.7617 44.6548C68.6812 44.7353 68.6359 44.8445 68.6358 44.9583V92.1893C68.6359 92.3031 68.6812 92.4123 68.7617 92.4927C68.8422 92.5732 68.9513 92.6185 69.0652 92.6187H182.42C182.533 92.6185 182.642 92.5732 182.723 92.4927C182.803 92.4123 182.849 92.3031 182.849 92.1893V44.9583C182.849 44.8445 182.803 44.7353 182.723 44.6548C182.642 44.5743 182.533 44.5291 182.42 44.5289H69.0652Z" fill="#3F3D56"/>
<path d="M81.9463 71.1501H76.7939C76.4523 71.1497 76.1249 71.0139 75.8834 70.7724C75.6419 70.5309 75.5061 70.2035 75.5057 69.862V64.7095C75.5061 64.368 75.6419 64.0406 75.8834 63.7991C76.1249 63.5576 76.4523 63.4218 76.7939 63.4214H81.9463C82.2878 63.4218 82.6153 63.5576 82.8568 63.7991C83.0982 64.0406 83.2341 64.368 83.2344 64.7095V69.862C83.2341 70.2035 83.0982 70.5309 82.8568 70.7724C82.6153 71.0139 82.2878 71.1497 81.9463 71.1501ZM76.7939 64.2801C76.68 64.2803 76.5709 64.3256 76.4904 64.4061C76.4099 64.4865 76.3646 64.5957 76.3645 64.7095V69.862C76.3646 69.9758 76.4099 70.0849 76.4904 70.1654C76.5709 70.2459 76.68 70.2912 76.7939 70.2914H81.9463C82.0602 70.2912 82.1693 70.2459 82.2498 70.1654C82.3303 70.0849 82.3756 69.9758 82.3757 69.862V64.7095C82.3756 64.5957 82.3303 64.4865 82.2498 64.4061C82.1693 64.3256 82.0602 64.2803 81.9463 64.2801H76.7939Z" fill="#3F3D56"/>
<path d="M173.832 70.2913H75.9351V71.15H173.832V70.2913Z" fill="#3F3D56"/>
<path d="M428.45 115.805H113.72V116.663H428.45V115.805Z" fill="#3F3D56"/>
<path d="M113.72 121.816C117.04 121.816 119.731 119.125 119.731 115.805C119.731 112.485 117.04 109.793 113.72 109.793C110.4 109.793 107.709 112.485 107.709 115.805C107.709 119.125 110.4 121.816 113.72 121.816Z" fill="#3F3D56"/>
<path d="M428.45 121.386C431.059 121.386 433.173 119.272 433.173 116.663C433.173 114.055 431.059 111.94 428.45 111.94C425.842 111.94 423.727 114.055 423.727 116.663C423.727 119.272 425.842 121.386 428.45 121.386Z" fill="#3F3D56"/>
<path d="M451.636 216.278C454.245 216.278 456.359 214.163 456.359 211.555C456.359 208.946 454.245 206.832 451.636 206.832C449.028 206.832 446.913 208.946 446.913 211.555C446.913 214.163 449.028 216.278 451.636 216.278Z" fill="#3F3D56"/>
<path d="M138.194 216.278C140.803 216.278 142.917 214.163 142.917 211.555C142.917 208.946 140.803 206.832 138.194 206.832C135.586 206.832 133.471 208.946 133.471 211.555C133.471 214.163 135.586 216.278 138.194 216.278Z" fill="#3F3D56"/>
</g>
<defs>
<clipPath id="clip0_52_920">
<rect width="472.525" height="297" fill="white"/>
</clipPath>
</defs>
</svg>
