<svg width="47" height="47" viewBox="0 0 47 47" fill="none" xmlns="http://www.w3.org/2000/svg">
<circle cx="23.5" cy="23.5" r="23.5" fill="#385C86"/>
<path d="M23.5 16L21.0063 16.1688C19.3938 14.2563 14.875 9.4375 10.375 9.4375C10.375 9.4375 6.68126 14.9875 10.3 22.3937C9.26876 23.95 8.63126 24.7562 8.50001 26.6125L4.88126 27.1562L5.27501 28.9938L8.57501 28.5063L8.83751 29.8375L5.89376 31.6L6.77501 33.2687L9.49376 31.6C11.65 36.175 17.1063 38.5 23.5 38.5C29.8938 38.5 35.35 36.175 37.5063 31.6L40.225 33.2687L41.1063 31.6L38.1625 29.8375L38.425 28.5063L41.725 28.9938L42.1188 27.1562L38.5 26.6125C38.3688 24.7562 37.7313 23.95 36.7 22.3937C40.3188 14.9875 36.625 9.4375 36.625 9.4375C32.125 9.4375 27.6063 14.2563 25.9938 16.1688L23.5 16ZM17.875 21.625C18.3723 21.625 18.8492 21.8225 19.2008 22.1742C19.5525 22.5258 19.75 23.0027 19.75 23.5C19.75 23.9973 19.5525 24.4742 19.2008 24.8258C18.8492 25.1775 18.3723 25.375 17.875 25.375C17.3777 25.375 16.9008 25.1775 16.5492 24.8258C16.1976 24.4742 16 23.9973 16 23.5C16 23.0027 16.1976 22.5258 16.5492 22.1742C16.9008 21.8225 17.3777 21.625 17.875 21.625ZM29.125 21.625C29.6223 21.625 30.0992 21.8225 30.4508 22.1742C30.8025 22.5258 31 23.0027 31 23.5C31 23.9973 30.8025 24.4742 30.4508 24.8258C30.0992 25.1775 29.6223 25.375 29.125 25.375C28.6277 25.375 28.1508 25.1775 27.7992 24.8258C27.4476 24.4742 27.25 23.9973 27.25 23.5C27.25 23.0027 27.4476 22.5258 27.7992 22.1742C28.1508 21.8225 28.6277 21.625 29.125 21.625ZM21.625 27.25H25.375L24.0625 29.8563C24.4375 31.0563 25.4875 31.9375 26.7813 31.9375C27.5272 31.9375 28.2425 31.6412 28.77 31.1137C29.2974 30.5863 29.5938 29.8709 29.5938 29.125H30.5313C30.5313 30.1196 30.1362 31.0734 29.4329 31.7766C28.7296 32.4799 27.7758 32.875 26.7813 32.875C25.375 32.875 24.1563 32.1063 23.5 31C22.8438 32.1063 21.625 32.875 20.2188 32.875C19.2242 32.875 18.2704 32.4799 17.5671 31.7766C16.8638 31.0734 16.4688 30.1196 16.4688 29.125H17.4063C17.4063 29.8709 17.7026 30.5863 18.23 31.1137C18.7575 31.6412 19.4728 31.9375 20.2188 31.9375C21.5125 31.9375 22.5625 31.0563 22.9375 29.8563L21.625 27.25Z" fill="white"/>
</svg>
