<svg width="47" height="47" viewBox="0 0 47 47" fill="none" xmlns="http://www.w3.org/2000/svg">
<circle cx="23.5" cy="23.5" r="23.5" fill="#385C86"/>
<path d="M33.75 9.8335C30.8288 9.8335 29.0521 10.3972 28.0271 10.8756C26.7117 10.2264 25.2083 9.8335 23.5 9.8335C21.7917 9.8335 20.2883 10.2264 18.9729 10.8756C17.9479 10.3972 16.1713 9.8335 13.25 9.8335C8.12501 9.8335 4.70834 23.5002 4.70834 26.9168C4.70834 28.3347 6.96334 29.6331 10.0725 30.1627C11.1658 33.9893 16.325 36.9106 22.6458 37.1668V29.8552C21.6379 29.2231 20.0833 28.0785 20.0833 26.9168C20.0833 25.2085 23.5 25.2085 23.5 25.2085C23.5 25.2085 26.9167 25.2085 26.9167 26.9168C26.9167 28.0785 25.3621 29.2231 24.3542 29.8552V37.1668C30.675 36.9106 35.8342 33.9893 36.9275 30.1627C40.0367 29.6331 42.2917 28.3347 42.2917 26.9168C42.2917 23.5002 38.875 9.8335 33.75 9.8335ZM10.0896 26.6947C9.23543 26.4897 8.56918 26.2506 8.12501 26.0627C8.55209 21.3306 11.8833 13.9335 13.3354 13.2502C14.2579 13.2502 14.9583 13.3527 15.5904 13.4381C12.0029 17.3843 10.585 23.5685 10.0896 26.6947ZM18.375 23.5002C17.9219 23.5002 17.4874 23.3202 17.167 22.9998C16.8467 22.6794 16.6667 22.2449 16.6667 21.7918C16.6667 20.8693 17.4354 20.0835 18.375 20.0835C18.8281 20.0835 19.2626 20.2635 19.583 20.5839C19.9034 20.9042 20.0833 21.3388 20.0833 21.7918C20.0833 22.7485 19.3146 23.5002 18.375 23.5002ZM28.625 23.5002C28.1719 23.5002 27.7374 23.3202 27.417 22.9998C27.0967 22.6794 26.9167 22.2449 26.9167 21.7918C26.9167 20.8693 27.6854 20.0835 28.625 20.0835C29.0781 20.0835 29.5126 20.2635 29.833 20.5839C30.1534 20.9042 30.3333 21.3388 30.3333 21.7918C30.3333 22.7485 29.5646 23.5002 28.625 23.5002ZM36.9104 26.6947C36.415 23.5685 34.9971 17.3843 31.4096 13.4381C32.0417 13.3527 32.7421 13.2502 33.6646 13.2502C35.1167 13.9335 38.4479 21.3306 38.875 26.0627C38.4479 26.2506 37.7817 26.4897 36.9104 26.6947Z" fill="white"/>
</svg>
