<svg width="57" height="57" viewBox="0 0 57 57" fill="none" xmlns="http://www.w3.org/2000/svg">
<g filter="url(#filter0_i_116_1289)">
<path d="M56.5 28.5C56.5 43.964 43.964 56.5 28.5 56.5C13.036 56.5 0.5 43.964 0.5 28.5C0.5 13.036 13.036 0.5 28.5 0.5C43.964 0.5 56.5 13.036 56.5 28.5Z" fill="#385C86" stroke="#385C86"/>
<path d="M28.125 43.0016C29.1196 43.0016 30.0734 42.6066 30.7766 41.9033C31.4799 41.2 31.875 40.2462 31.875 39.2516H24.375C24.375 40.2462 24.7701 41.2 25.4733 41.9033C26.1766 42.6066 27.1304 43.0016 28.125 43.0016ZM29.9906 15.0623C30.0168 14.8016 29.988 14.5383 29.9062 14.2893C29.8243 14.0404 29.6912 13.8114 29.5155 13.6171C29.3397 13.4228 29.1251 13.2675 28.8856 13.1612C28.6461 13.0549 28.387 13 28.125 13C27.863 13 27.6039 13.0549 27.3644 13.1612C27.1249 13.2675 26.9103 13.4228 26.7345 13.6171C26.5588 13.8114 26.4257 14.0404 26.3438 14.2893C26.262 14.5383 26.2332 14.8016 26.2594 15.0623C24.1401 15.4933 22.2349 16.6436 20.8664 18.3182C19.498 19.9928 18.7503 22.089 18.75 24.2516C18.75 26.3104 17.8125 35.5016 15 37.3766H41.25C38.4375 35.5016 37.5 26.3104 37.5 24.2516C37.5 19.7141 34.275 15.9266 29.9906 15.0623Z" fill="white"/>
</g>
<defs>
<filter id="filter0_i_116_1289" x="0" y="0" width="57" height="61" filterUnits="userSpaceOnUse" color-interpolation-filters="sRGB">
<feFlood flood-opacity="0" result="BackgroundImageFix"/>
<feBlend mode="normal" in="SourceGraphic" in2="BackgroundImageFix" result="shape"/>
<feColorMatrix in="SourceAlpha" type="matrix" values="0 0 0 0 0 0 0 0 0 0 0 0 0 0 0 0 0 0 127 0" result="hardAlpha"/>
<feOffset dy="4"/>
<feGaussianBlur stdDeviation="2"/>
<feComposite in2="hardAlpha" operator="arithmetic" k2="-1" k3="1"/>
<feColorMatrix type="matrix" values="0 0 0 0 0 0 0 0 0 0 0 0 0 0 0 0 0 0 0.25 0"/>
<feBlend mode="normal" in2="shape" result="effect1_innerShadow_116_1289"/>
</filter>
</defs>
</svg>
