<svg width="57" height="57" viewBox="0 0 57 57" fill="none" xmlns="http://www.w3.org/2000/svg">
<g clip-path="url(#clip0_58_1273)">
<path d="M29.01 37.2089C34.1195 37.2089 38.2617 33.0668 38.2617 27.9572C38.2617 22.8477 34.1195 18.7056 29.01 18.7056C23.9004 18.7056 19.7583 22.8477 19.7583 27.9572C19.7583 33.0668 23.9004 37.2089 29.01 37.2089Z" fill="#FFB6B6"/>
<path d="M23.6989 38.5772L23.2809 34.3522L31.6275 32.7915L36.556 44.7915L27.9846 54.6486L21.8775 42.6486L23.6989 38.5772Z" fill="#FFB6B6"/>
<path d="M23.1469 36.4671L24.9716 36.8794C24.9716 36.8794 23.5372 32.3307 24.0241 31.8964C24.511 31.4621 25.7041 32.1464 25.7041 32.1464L26.9579 33.5521L28.4851 31.9972C28.4851 31.9972 30.1431 29.9356 30.7923 29.3565C31.4415 28.7775 30.3987 26.6283 30.3987 26.6283C30.3987 26.6283 40.03 24.0312 36.4462 19.3597C36.4462 19.3597 34.345 15.6971 33.6608 16.8902C32.9765 18.0834 32.1606 16.1884 32.1606 16.1884L29.6691 16.6622C29.6691 16.6622 24.7519 13.7629 20.0848 19.9654C15.4178 26.1679 23.1469 36.4671 23.1469 36.4671H23.1469V36.4671Z" fill="#2F2E41"/>
<path d="M46.41 50.6731C41.3539 54.7724 35.0989 56.9999 28.5 56.9999C22.4743 56.9999 16.7346 55.142 11.9336 51.6985C11.9421 51.6085 11.9507 51.5195 11.9582 51.4306C12.0857 50.0377 12.1993 48.6835 12.2743 47.5606C12.5646 43.201 22.7357 40.2952 22.7357 40.2952C22.7357 40.2952 22.7818 40.3413 22.8739 40.4217C23.4354 40.9145 25.7143 42.7017 29.7107 43.201C33.2743 43.6467 34.4475 41.5327 34.8021 40.5202C34.9093 40.2117 34.9414 40.0049 34.9414 40.0049L45.4028 44.9452C46.0853 45.9202 46.3521 48.0202 46.4046 50.3806C46.4068 50.4781 46.4089 50.5745 46.41 50.6731Z" fill="#385C86"/>
<path d="M48.6525 8.3475C43.2696 2.96464 36.1125 0 28.5 0C20.8875 0 13.7304 2.96464 8.3475 8.3475C2.96465 13.7304 0 20.8875 0 28.5C0 35.4482 2.46965 42.0171 6.99536 47.2039C7.42714 47.7 7.87822 48.1832 8.3475 48.6525C8.45786 48.7629 8.56929 48.8732 8.68179 48.9804C8.98179 49.2707 9.28715 49.5546 9.59786 49.83C9.78643 49.9982 9.97715 50.1632 10.17 50.325C10.3211 50.4525 10.4722 50.5779 10.6254 50.7011C10.6286 50.7043 10.6307 50.7064 10.6339 50.7086C11.0593 51.0514 11.4921 51.3814 11.9336 51.6986C16.7346 55.1421 22.4743 57 28.5 57C35.0989 57 41.3539 54.7725 46.41 50.6732C46.8225 50.3389 47.2264 49.9918 47.6229 49.6329C47.9732 49.3157 48.3161 48.9889 48.6525 48.6525C48.7586 48.5464 48.8646 48.4393 48.9686 48.3311C49.2579 48.0332 49.5386 47.73 49.8129 47.4225C54.4596 42.2025 57 35.5468 57 28.5C57 20.8875 54.0354 13.7304 48.6525 8.3475V8.3475ZM49.7432 47.1557C49.4754 47.46 49.2011 47.76 48.9204 48.0525C48.4832 48.5079 48.0321 48.9493 47.5661 49.3746C47.3893 49.5375 47.2104 49.6961 47.0293 49.8536C46.8236 50.0325 46.6157 50.2082 46.4046 50.3807C44.7407 51.7468 42.9182 52.9254 40.9693 53.8854C40.1989 54.2657 39.4093 54.6118 38.6014 54.9214C35.4632 56.1257 32.0571 56.7857 28.5 56.7857C25.0671 56.7857 21.7757 56.1707 18.7296 55.0457C17.4793 54.585 16.2707 54.0375 15.1104 53.4107C14.94 53.3186 14.7707 53.2254 14.6025 53.13C13.7175 52.6286 12.8614 52.0811 12.0396 51.4896C12.0129 51.4704 11.985 51.45 11.9582 51.4307C11.3732 51.0086 10.8043 50.5639 10.2546 50.0968C10.0532 49.9264 9.85393 49.7539 9.65786 49.5771C9.33858 49.2932 9.02572 49.0007 8.72036 48.7007C8.14179 48.1339 7.58893 47.5436 7.06072 46.9296C2.79536 41.9754 0.214286 35.5339 0.214286 28.5C0.214286 12.9032 12.9032 0.214286 28.5 0.214286C44.0968 0.214286 56.7857 12.9032 56.7857 28.5C56.7857 35.6421 54.1254 42.1736 49.7432 47.1557Z" fill="#3F3D56"/>
</g>
<defs>
<clipPath id="clip0_58_1273">
<rect width="57" height="57" fill="white"/>
</clipPath>
</defs>
</svg>
