<?xml version="1.0" encoding="UTF-8"?>
<svg xmlns="http://www.w3.org/2000/svg" xmlns:xlink="http://www.w3.org/1999/xlink" viewBox="0 0 24 24" width="24px" height="24px">
<g id="surface174651594">
<path style=" stroke:none;fill-rule:nonzero;fill:rgb(0%,0%,0%);fill-opacity:0.03922;" d="M 10.082031 1.441406 C 5.570312 1.441406 1.921875 5.089844 1.921875 9.601562 C 1.921875 14.113281 5.570312 17.761719 10.082031 17.761719 C 11.691406 17.761719 13.179688 17.289062 14.445312 16.484375 L 20.339844 22.378906 L 22.378906 20.339844 L 16.558594 14.535156 C 17.605469 13.164062 18.242188 11.460938 18.242188 9.601562 C 18.242188 5.089844 14.589844 1.441406 10.082031 1.441406 Z M 10.082031 3.359375 C 13.535156 3.359375 16.320312 6.144531 16.320312 9.601562 C 16.320312 13.054688 13.535156 15.839844 10.082031 15.839844 C 6.625 15.839844 3.839844 13.054688 3.839844 9.601562 C 3.839844 6.144531 6.625 3.359375 10.082031 3.359375 Z M 10.082031 3.359375 "/>
</g>
</svg>
