<svg width="27" height="27" viewBox="0 0 27 27" fill="none" xmlns="http://www.w3.org/2000/svg">
<path d="M17.1999 16.5116C17.0348 16.4576 15.9911 15.9872 16.6433 14.0048H16.6339C18.3339 12.254 19.633 9.43661 19.633 6.66288C19.633 2.39792 16.797 0.162109 13.5009 0.162109C10.2027 0.162109 7.38226 2.39688 7.38226 6.66288C7.38226 9.44803 8.6741 12.2768 10.3845 14.0235C11.0511 15.7723 9.85899 16.4213 9.60976 16.5116C6.15791 17.7609 2.10791 20.0362 2.10791 22.2824V23.1246C2.10791 26.1849 8.04168 26.8807 13.5331 26.8807C19.0328 26.8807 24.8918 26.1849 24.8918 23.1246V22.2824C24.8918 19.9687 20.822 17.7111 17.1999 16.5116ZM11.4717 25.5556C11.4717 22.9086 13.1571 19.3352 13.1571 19.3352L11.991 18.4203C11.991 17.546 13.4998 16.6311 13.4998 16.6311C13.4998 16.6311 15.0046 17.5605 15.0046 18.4203L13.8425 19.3352C13.8425 19.3352 15.528 22.8951 15.528 25.5847C15.528 26.0063 11.4717 25.9087 11.4717 25.5556Z" fill="black"/>
</svg>
