<svg width="34" height="34" viewBox="0 0 34 34" fill="none" xmlns="http://www.w3.org/2000/svg">
<path d="M17 8.5C15.9493 8.5 14.9222 8.81157 14.0485 9.39532C13.1749 9.97906 12.494 10.8088 12.0919 11.7795C11.6898 12.7502 11.5846 13.8184 11.7896 14.8489C11.9946 15.8794 12.5005 16.826 13.2435 17.569C13.9865 18.312 14.9331 18.8179 15.9636 19.0229C16.9941 19.2279 18.0623 19.1227 19.033 18.7206C20.0037 18.3185 20.8334 17.6376 21.4172 16.764C22.0009 15.8903 22.3125 14.8632 22.3125 13.8125C22.3125 12.4035 21.7528 11.0523 20.7565 10.056C19.7602 9.05971 18.409 8.5 17 8.5Z" fill="black"/>
<path d="M17 2.125C14.058 2.125 11.1821 2.9974 8.7359 4.63189C6.28972 6.26638 4.38315 8.58953 3.2573 11.3076C2.13145 14.0256 1.83687 17.0165 2.41083 19.902C2.98478 22.7874 4.40149 25.4379 6.48179 27.5182C8.5621 29.5985 11.2126 31.0152 14.098 31.5892C16.9835 32.1631 19.9744 31.8686 22.6924 30.7427C25.4105 29.6169 27.7336 27.7103 29.3681 25.2641C31.0026 22.8179 31.875 19.942 31.875 17C31.8705 13.0563 30.3019 9.27538 27.5133 6.48676C24.7246 3.69813 20.9437 2.1295 17 2.125ZM25.4915 26.4839C25.4703 25.0902 24.9025 23.7607 23.9104 22.7817C22.9183 21.8027 21.5813 21.2526 20.1875 21.25H13.8125C12.4187 21.2526 11.0817 21.8027 10.0896 22.7817C9.09749 23.7607 8.52968 25.0902 8.50851 26.4839C6.58173 24.7634 5.22297 22.4983 4.61214 19.9885C4.00132 17.4786 4.16724 14.8424 5.08793 12.429C6.00863 10.0155 7.64068 7.93865 9.76796 6.47335C11.8953 5.00806 14.4174 4.22346 17.0005 4.22346C19.5836 4.22346 22.1058 5.00806 24.2331 6.47335C26.3604 7.93865 27.9924 10.0155 28.9131 12.429C29.8338 14.8424 29.9998 17.4786 29.3889 19.9885C28.7781 22.4983 27.4193 24.7634 25.4926 26.4839H25.4915Z" fill="black"/>
</svg>
