<svg width="28" height="28" viewBox="0 0 28 28" fill="none" xmlns="http://www.w3.org/2000/svg">
<path d="M24.0375 7.28006H21.2801V4.3535C21.2801 2.26134 19.6292 0.560059 17.5314 0.560059H10.4693C8.37038 0.560059 6.72006 2.26134 6.72006 4.3535V7.28006H3.96206C2.0827 7.28006 0.560059 8.73102 0.560059 10.6048V23.4887C0.560059 25.3619 2.0827 26.8801 3.96206 26.8801H24.0375C25.9163 26.8801 27.4401 25.3619 27.4401 23.4881V10.6048C27.4401 8.73102 25.9163 7.28006 24.0375 7.28006ZM8.96006 4.3535C8.96006 3.57006 9.68358 2.80006 10.4693 2.80006H17.5314C18.3149 2.80006 19.0401 3.57006 19.0401 4.3535V7.28006H8.96006V4.3535ZM20.1601 19.6001H16.2401V23.5201H11.7601V19.6001H7.84006V15.1201H11.7601V11.2001H16.2401V15.1201H20.1601V19.6001Z" fill="black"/>
</svg>
