<svg width="44" height="40" viewBox="0 0 44 40" fill="none" xmlns="http://www.w3.org/2000/svg">
<path d="M36.3639 19.9998H19.0911M32.7275 24.9998L38.182 19.9998L32.7275 14.9998M23.6366 11.6665V9.99984C23.6366 9.11578 23.2535 8.26794 22.5715 7.64281C21.8896 7.01769 20.9646 6.6665 20.0002 6.6665H10.9093C9.94489 6.6665 9.01997 7.01769 8.33802 7.64281C7.65606 8.26794 7.27295 9.11578 7.27295 9.99984V29.9998C7.27295 30.8839 7.65606 31.7317 8.33802 32.3569C9.01997 32.982 9.94489 33.3332 10.9093 33.3332H20.0002C20.9646 33.3332 21.8896 32.982 22.5715 32.3569C23.2535 31.7317 23.6366 30.8839 23.6366 29.9998V28.3332" stroke="black" stroke-width="3" stroke-linecap="round" stroke-linejoin="round"/>
</svg>
