<svg width="55" height="55" viewBox="0 0 55 55" fill="none" xmlns="http://www.w3.org/2000/svg">
<g clip-path="url(#clip0_51_1022)">
<path d="M18.3334 24.6585H17.0042C15.1904 24.593 13.3824 24.9009 11.6925 25.5632C10.0027 26.2255 8.46692 27.228 7.18063 28.5085L6.81396 28.9363V41.5863H13.0473V34.4058L13.8876 33.4585L14.2695 33.0155C16.2586 30.9721 18.7349 29.4684 21.4654 28.646C20.0983 27.6058 19.0201 26.2331 18.3334 24.6585Z" fill="#385C86"/>
<path d="M47.8806 28.4626C46.5943 27.1821 45.0586 26.1796 43.3687 25.5173C41.6788 24.855 39.8709 24.5471 38.057 24.6126C37.5007 24.6142 36.9449 24.6448 36.3917 24.7043C35.6922 26.1815 34.6434 27.4662 33.3362 28.4474C36.2511 29.2538 38.8918 30.8382 40.9751 33.0307L41.357 33.4585L42.182 34.4057V41.6015H48.2015V28.8904L47.8806 28.4626Z" fill="#385C86"/>
<path d="M16.9583 21.6793H17.4319C17.2119 19.7898 17.5434 17.877 18.3865 16.1718C19.2296 14.4666 20.5483 13.0418 22.1833 12.0696C21.5906 11.1641 20.773 10.4281 19.8104 9.93364C18.8478 9.43916 17.7733 9.20314 16.6921 9.24871C15.6109 9.29427 14.56 9.61985 13.6424 10.1936C12.7249 10.7673 11.972 11.5695 11.4576 12.5215C10.9432 13.4736 10.6849 14.543 10.708 15.6249C10.731 16.7068 11.0347 17.7642 11.5892 18.6935C12.1437 19.6229 12.93 20.3922 13.8712 20.9263C14.8124 21.4604 15.8761 21.7409 16.9583 21.7404V21.6793Z" fill="#385C86"/>
<path d="M37.3235 20.5331C37.342 20.8842 37.342 21.2361 37.3235 21.5873C37.6167 21.6337 37.9128 21.6593 38.2096 21.6637H38.4999C39.5773 21.6062 40.6215 21.2708 41.5308 20.69C42.44 20.1092 43.1834 19.3028 43.6886 18.3495C44.1938 17.3961 44.4434 16.3282 44.4133 15.2496C44.3833 14.1711 44.0744 13.1188 43.5169 12.195C42.9594 11.2713 42.1721 10.5077 41.2319 9.97849C40.2916 9.4493 39.2304 9.1726 38.1514 9.17531C37.0725 9.17803 36.0127 9.46007 35.0751 9.99397C34.1375 10.5279 33.3541 11.2955 32.8013 12.222C34.184 13.1248 35.3211 14.3568 36.1103 15.8073C36.8996 17.2579 37.3165 18.8817 37.3235 20.5331Z" fill="#385C86"/>
<path d="M27.3013 27.3776C31.073 27.3776 34.1305 24.3201 34.1305 20.5484C34.1305 16.7768 31.073 13.7192 27.3013 13.7192C23.5297 13.7192 20.4722 16.7768 20.4722 20.5484C20.4722 24.3201 23.5297 27.3776 27.3013 27.3776Z" fill="#385C86"/>
<path d="M27.668 31.0137C25.6728 30.9331 23.6819 31.2571 21.8152 31.966C19.9484 32.6749 18.2443 33.7541 16.8055 35.1387L16.4236 35.5665V45.2373C16.4295 45.5523 16.4975 45.8631 16.6236 46.1518C16.7497 46.4405 16.9314 46.7016 17.1584 46.9201C17.3854 47.1386 17.6532 47.3102 17.9466 47.4252C18.2399 47.5401 18.553 47.5962 18.868 47.5901H36.4222C36.7372 47.5962 37.0503 47.5401 37.3437 47.4252C37.637 47.3102 37.9048 47.1386 38.1318 46.9201C38.3588 46.7016 38.5406 46.4405 38.6666 46.1518C38.7927 45.8631 38.8607 45.5523 38.8666 45.2373V35.597L38.5 35.1387C37.0705 33.7498 35.3724 32.6676 33.5097 31.9582C31.6471 31.2489 29.6593 30.9275 27.668 31.0137Z" fill="#385C86"/>
</g>
<defs>
<clipPath id="clip0_51_1022">
<rect width="55" height="55" fill="white"/>
</clipPath>
</defs>
</svg>
