<svg width="50" height="44" viewBox="0 0 50 44" fill="none" xmlns="http://www.w3.org/2000/svg">
<path d="M22.1192 6.07215C23.5157 10.2616 22.0899 14.4901 18.9356 15.5253C15.7813 16.5604 12.0899 14.0018 10.6934 9.81239C9.29696 5.62293 10.7227 1.39442 13.877 0.359262C17.0313 -0.675895 20.7227 1.8827 22.1192 6.07215ZM9.80477 16.3944C11.6505 19.5585 11.2013 23.2401 8.80868 24.6073C6.4161 25.9745 2.9786 24.5194 1.14267 21.3554C-0.69327 18.1913 -0.263582 14.5097 2.12899 13.1425C4.52157 11.7753 7.95907 13.2304 9.79501 16.3944H9.80477ZM6.7579 36.1796C11.8751 22.3808 20.9669 18.8749 25.0001 18.8749C29.0333 18.8749 38.1251 22.3808 43.2423 36.1796C43.5938 37.1268 43.7501 38.1425 43.7501 39.1581V39.3143C43.7501 41.8339 41.7091 43.8749 39.1895 43.8749C38.0665 43.8749 36.9532 43.7382 35.8692 43.4647L27.2755 41.3163C25.7813 40.9452 24.2188 40.9452 22.7247 41.3163L14.1309 43.4647C13.047 43.7382 11.9337 43.8749 10.8106 43.8749C8.2911 43.8749 6.25009 41.8339 6.25009 39.3143V39.1581C6.25009 38.1425 6.40634 37.1268 6.7579 36.1796ZM41.1915 24.6073C38.7989 23.2401 38.3497 19.5585 40.1954 16.3944C42.0411 13.2304 45.4688 11.7753 47.8614 13.1425C50.254 14.5097 50.7032 18.1913 48.8575 21.3554C47.0118 24.5194 43.5841 25.9745 41.1915 24.6073ZM30.2833 15.5253C27.129 14.4901 25.7032 10.2616 27.0997 6.07215C28.4962 1.8827 32.1876 -0.675895 35.3419 0.359262C38.4962 1.39442 39.922 5.62293 38.5255 9.81239C37.129 14.0018 33.4376 16.5604 30.2833 15.5253Z" fill="#385C86"/>
</svg>
