<svg width="26" height="26" viewBox="0 0 26 26" fill="none" xmlns="http://www.w3.org/2000/svg">
<path d="M11.5015 3.53206C12.2278 6.02205 11.4863 8.53525 9.84566 9.1505C8.20506 9.76574 6.28511 8.24505 5.55877 5.75506C4.83244 3.26507 5.57401 0.751863 7.21461 0.136621C8.85521 -0.478621 10.7752 1.04207 11.5015 3.53206ZM5.09656 9.66707C6.05654 11.5476 5.8229 13.7358 4.57848 14.5484C3.33406 15.361 1.54617 14.4961 0.591271 12.6156C-0.363628 10.735 -0.140141 8.54686 1.10427 7.73428C2.34869 6.9217 4.13659 7.78652 5.09148 9.66707H5.09656ZM3.51184 21.4263C6.17336 13.225 10.9021 11.1413 12.9999 11.1413C15.0976 11.1413 19.8264 13.225 22.4879 21.4263C22.6708 21.9893 22.752 22.593 22.752 23.1966V23.2895C22.752 24.7869 21.6905 26 20.38 26C19.7959 26 19.2169 25.9187 18.6531 25.7562L14.1833 24.4793C13.4062 24.2587 12.5935 24.2587 11.8164 24.4793L7.34667 25.7562C6.78287 25.9187 6.20384 26 5.61973 26C4.30928 26 3.24772 24.7869 3.24772 23.2895V23.1966C3.24772 22.593 3.32899 21.9893 3.51184 21.4263ZM21.4213 14.5484C20.1768 13.7358 19.9432 11.5476 20.9032 9.66707C21.8632 7.78652 23.646 6.9217 24.8904 7.73428C26.1348 8.54686 26.3685 10.735 25.4085 12.6156C24.4485 14.4961 22.6657 15.361 21.4213 14.5484ZM15.7477 9.1505C14.1071 8.53525 13.3656 6.02205 14.0919 3.53206C14.8182 1.04207 16.7382 -0.478621 18.3788 0.136621C20.0194 0.751863 20.761 3.26507 20.0346 5.75506C19.3083 8.24505 17.3883 9.76574 15.7477 9.1505Z" fill="black"/>
</svg>
