<svg width="35" height="35" viewBox="0 0 35 35" fill="none" xmlns="http://www.w3.org/2000/svg">
<path d="M3.82812 27.8281C3.82812 28.3813 4.275 28.8281 4.82812 28.8281H27.8281C28.3813 28.8281 28.8281 28.3813 28.8281 27.8281V14.7031H3.82812V27.8281ZM27.8281 6.07812H22.5781V4.07812C22.5781 3.94062 22.4656 3.82812 22.3281 3.82812H20.5781C20.4406 3.82812 20.3281 3.94062 20.3281 4.07812V6.07812H12.3281V4.07812C12.3281 3.94062 12.2156 3.82812 12.0781 3.82812H10.3281C10.1906 3.82812 10.0781 3.94062 10.0781 4.07812V6.07812H4.82812C4.275 6.07812 3.82812 6.525 3.82812 7.07812V12.5781H28.8281V7.07812C28.8281 6.525 28.3813 6.07812 27.8281 6.07812Z" fill="black"/>
</svg>
