<svg width="37" height="37" viewBox="0 0 37 37" fill="none" xmlns="http://www.w3.org/2000/svg">
<path d="M21.3059 33.9168H15.6942C15.3426 33.9169 15.0015 33.7968 14.7276 33.5764C14.4536 33.356 14.2632 33.0485 14.188 32.7051L13.5605 29.8006C12.7235 29.4338 11.9298 28.9752 11.1941 28.4331L8.36205 29.335C8.02683 29.4419 7.66513 29.4309 7.33702 29.3039C7.00891 29.1768 6.73412 28.9414 6.5583 28.6366L3.7463 23.7788C3.57231 23.4738 3.507 23.1187 3.56105 22.7717C3.6151 22.4247 3.78531 22.1064 4.04384 21.8687L6.24071 19.8645C6.14081 18.9567 6.14081 18.0406 6.24071 17.1327L4.04384 15.1332C3.78495 14.8954 3.61451 14.5767 3.56045 14.2294C3.50639 13.8821 3.57192 13.5267 3.7463 13.2215L6.55213 8.36062C6.72796 8.05586 7.00274 7.82041 7.33086 7.69337C7.65897 7.56633 8.02066 7.55535 8.35588 7.66225L11.1879 8.56412C11.5641 8.28662 11.9557 8.02762 12.3596 7.79329C12.7496 7.57437 13.1505 7.3755 13.5605 7.1982L14.1895 4.29679C14.2644 3.9533 14.4545 3.64572 14.7281 3.42505C15.0018 3.20438 15.3427 3.08387 15.6942 3.0835H21.3059C21.6574 3.08387 21.9983 3.20438 22.272 3.42505C22.5456 3.64572 22.7357 3.9533 22.8105 4.29679L23.4457 7.19975C24.2817 7.56862 25.0751 8.02712 25.8122 8.5672L28.6458 7.66533C28.9808 7.55883 29.3421 7.57001 29.6699 7.69703C29.9977 7.82405 30.2722 8.05927 30.448 8.3637L33.2538 13.2246C33.6115 13.852 33.4881 14.646 32.9563 15.1347L30.7594 17.1389C30.8593 18.0467 30.8593 18.9628 30.7594 19.8707L32.9563 21.8749C33.4881 22.3651 33.6115 23.1575 33.2538 23.785L30.448 28.6459C30.2721 28.9506 29.9973 29.1861 29.6692 29.3131C29.3411 29.4402 28.9794 29.4511 28.6442 29.3442L25.8122 28.4424C25.077 28.984 24.2838 29.4422 23.4473 29.8083L22.8105 32.7051C22.7354 33.0483 22.5452 33.3555 22.2716 33.5759C21.9979 33.7962 21.6572 33.9165 21.3059 33.9168ZM18.4939 12.3335C16.8584 12.3335 15.2899 12.9832 14.1334 14.1397C12.9769 15.2961 12.3272 16.8647 12.3272 18.5002C12.3272 20.1357 12.9769 21.7042 14.1334 22.8607C15.2899 24.0171 16.8584 24.6668 18.4939 24.6668C20.1294 24.6668 21.6979 24.0171 22.8544 22.8607C24.0108 21.7042 24.6605 20.1357 24.6605 18.5002C24.6605 16.8647 24.0108 15.2961 22.8544 14.1397C21.6979 12.9832 20.1294 12.3335 18.4939 12.3335Z" fill="black"/>
</svg>
