<svg width="35" height="35" viewBox="0 0 35 35" fill="none" xmlns="http://www.w3.org/2000/svg">
<g clip-path="url(#clip0_51_1032)">
<path d="M11.6665 15.6915H10.8207C9.66639 15.6498 8.51587 15.8458 7.44049 16.2672C6.36511 16.6887 5.38782 17.3266 4.56927 18.1415L4.33594 18.4138V26.4638H8.3026V21.8943L8.83733 21.2915L9.08038 21.0096C10.3461 19.7092 11.922 18.7524 13.6595 18.229C12.7896 17.5671 12.1035 16.6935 11.6665 15.6915Z" fill="black"/>
<path d="M30.4694 18.1127C29.6509 17.2978 28.6736 16.6599 27.5982 16.2384C26.5228 15.817 25.3723 15.621 24.218 15.6627C23.864 15.6637 23.5103 15.6832 23.1583 15.7211C22.7131 16.6611 22.0458 17.4786 21.2139 18.103C23.0688 18.6162 24.7492 19.6244 26.075 21.0197L26.318 21.2919L26.843 21.8947V26.4738H30.6736V18.3849L30.4694 18.1127Z" fill="black"/>
<path d="M10.7919 13.7957H11.0933C10.9532 12.5933 11.1642 11.3761 11.7007 10.291C12.2373 9.20582 13.0764 8.29917 14.1169 7.68045C13.7397 7.10426 13.2194 6.6359 12.6068 6.32123C11.9943 6.00656 11.3105 5.85637 10.6224 5.88536C9.9344 5.91436 9.26569 6.12154 8.68178 6.48663C8.09787 6.85172 7.61878 7.3622 7.29144 7.96808C6.96409 8.57396 6.79971 9.25446 6.81438 9.94296C6.82905 10.6315 7.02228 11.3043 7.37515 11.8957C7.72801 12.4871 8.22841 12.9767 8.82734 13.3166C9.42628 13.6565 10.1032 13.835 10.7919 13.8346V13.7957Z" fill="black"/>
<path d="M23.7513 13.0666C23.7631 13.29 23.7631 13.5139 23.7513 13.7374C23.9379 13.767 24.1263 13.7832 24.3152 13.786H24.4999C25.1856 13.7494 25.85 13.536 26.4287 13.1664C27.0073 12.7968 27.4804 12.2837 27.8018 11.677C28.1233 11.0703 28.2822 10.3907 28.263 9.70436C28.2439 9.01802 28.0474 8.34834 27.6926 7.76052C27.3378 7.17269 26.8368 6.68674 26.2385 6.34999C25.6401 6.01324 24.9648 5.83715 24.2782 5.83888C23.5916 5.84061 22.9171 6.02009 22.3205 6.35985C21.7239 6.69961 21.2254 7.18807 20.8735 7.77767C21.7535 8.35219 22.477 9.13616 22.9793 10.0593C23.4816 10.9823 23.7468 12.0157 23.7513 13.0666Z" fill="black"/>
<path d="M17.3737 17.4221C19.7738 17.4221 21.7195 15.4764 21.7195 13.0763C21.7195 10.6762 19.7738 8.73047 17.3737 8.73047C14.9735 8.73047 13.0278 10.6762 13.0278 13.0763C13.0278 15.4764 14.9735 17.4221 17.3737 17.4221Z" fill="black"/>
<path d="M17.6067 19.7363C16.337 19.685 15.0701 19.8911 13.8822 20.3422C12.6942 20.7934 11.6098 21.4801 10.6942 22.3613L10.4512 22.6335V28.7876C10.455 28.9881 10.4982 29.1859 10.5784 29.3696C10.6587 29.5533 10.7743 29.7195 10.9188 29.8585C11.0632 29.9975 11.2337 30.1068 11.4203 30.1799C11.607 30.2531 11.8063 30.2887 12.0067 30.2849H23.1776C23.378 30.2887 23.5773 30.2531 23.7639 30.1799C23.9506 30.1068 24.121 29.9975 24.2655 29.8585C24.41 29.7195 24.5256 29.5533 24.6058 29.3696C24.6861 29.1859 24.7293 28.9881 24.7331 28.7876V22.6529L24.4998 22.3613C23.5901 21.4774 22.5095 20.7887 21.3242 20.3373C20.1389 19.8859 18.8739 19.6814 17.6067 19.7363Z" fill="black"/>
</g>
<defs>
<clipPath id="clip0_51_1032">
<rect width="35" height="35" fill="white"/>
</clipPath>
</defs>
</svg>
